<?xml version="1.0" encoding="UTF-8"?>
<svg width="32px" height="32px" viewBox="0 0 32 32" version="1.1" xmlns="http://www.w3.org/2000/svg" xmlns:xlink="http://www.w3.org/1999/xlink">
    <title>首页</title>
    <g id="页面-1" stroke="none" stroke-width="1" fill="none" fill-rule="evenodd">
        <g id="画板" transform="translate(-137.000000, -96.000000)" fill="#FFFFFF" fill-rule="nonzero">
            <g id="首页" transform="translate(137.004960, 96.000000)">
                <path d="M29.2261905,17.2371032 C30.5555556,17.2371032 31.6418651,18.3184524 31.6418651,19.6478175 L31.6418651,29.3303571 C31.6369048,30.6597222 30.5555556,31.7410714 29.2261905,31.7410714 L19.5436508,31.7410714 C18.2142857,31.7410714 17.1279762,30.6597222 17.1279762,29.3303571 L17.1279762,19.6478175 C17.1279762,18.3184524 18.2093254,17.2371032 19.5436508,17.2371032 L29.2261905,17.2371032 Z M12.093254,17.2371032 C13.422619,17.2371032 14.5039852,18.3184524 14.5039852,19.6478175 L14.5039852,29.3303571 C14.5089286,30.6597222 13.422619,31.7410714 12.093254,31.7410714 L2.41071429,31.7410714 C1.08134921,31.7410714 -1.33226763e-14,30.6597222 -1.33226763e-14,29.3303571 L-1.33226763e-14,19.6478175 C-1.33226763e-14,18.3184524 1.08134921,17.2371032 2.41071429,17.2371032 L12.093254,17.2371032 Z M12.093254,7.10542736e-15 C13.422619,7.10542736e-15 14.5039852,1.08134921 14.5039852,2.4156746 L14.5039852,12.0982143 C14.5089286,13.4275794 13.422619,14.5089286 12.093254,14.5089286 L2.41071429,14.5089286 C1.08134921,14.5089286 0,13.4275794 0,12.0982143 L0,2.4156746 C0,1.08630952 1.08134921,7.10542736e-15 2.41071429,7.10542736e-15 L12.093254,7.10542736e-15 Z M29.2261905,7.10542736e-15 C30.5555556,7.10542736e-15 31.6418651,1.08134921 31.6418651,2.4156746 L31.6418651,12.0982143 C31.6369048,13.4275794 30.5555556,14.5089286 29.2261905,14.5089286 L19.5436508,14.5089286 C18.2142857,14.5089286 17.1279762,13.4275794 17.1279762,12.0982143 L17.1279762,2.4156746 C17.1279762,1.08630952 18.2093254,7.10542736e-15 19.5436508,7.10542736e-15 L29.2261905,7.10542736e-15 Z" id="形状结合"></path>
            </g>
        </g>
    </g>
</svg>