<svg xmlns="http://www.w3.org/2000/svg" width="24" height="24" viewBox="0 0 24 24"><path fill="#FFF" fill-rule="nonzero" d="M10.0000116,0 C4.4444583,0 0,4.4444583 0,10.0000116 C0,15.555565 4.4444583,20.0000233 10.0000116,20.0000233 C10.8889013,20.0000233 11.6666796,19.222245 11.6666796,18.3333553 C11.6666796,17.8889095 11.5555683,17.5555771 11.2222338,17.2222427 C11.0000108,16.8889083 10.7777879,16.5555759 10.7777879,16.1111301 C10.7777879,15.2222404 11.5556111,14.4444621 12.4444559,14.4444621 L14.4444582,14.4444621 C17.5555751,14.4444621 20.0000116,12 20.0000116,8.88890878 C20.0000116,4.00001637 15.5555533,0 10,0 L10.0000116,0 Z M3.88889124,10.0000116 C3.00000154,10.0000116 2.22222329,9.22223339 2.22222329,8.33334368 C2.22222329,7.44445398 3.00000154,6.66667573 3.88889124,6.66667573 C4.77778095,6.66667573 5.5555592,7.44445398 5.5555592,8.33334368 C5.5555592,9.22223339 4.77778095,10.0000116 3.88889124,10.0000116 Z M7.22223497,5.55555334 C6.33334526,5.55555334 5.55556701,4.77777509 5.55556701,3.88888538 C5.55556701,2.99999568 6.33334526,2.22221743 7.22223497,2.22221743 C8.11112467,2.22221743 8.88890292,2.99999568 8.88890292,3.88888538 C8.88890292,4.77777509 8.11112467,5.55555334 7.22223497,5.55555334 Z M12.7777883,5.55555334 C11.8888986,5.55555334 11.1111204,4.77777509 11.1111204,3.88888538 C11.1111204,2.99999568 11.8888986,2.22221743 12.7777883,2.22221743 C13.666678,2.22221743 14.4444563,2.99999568 14.4444563,3.88888538 C14.4444563,4.77777509 13.666678,5.55555334 12.7777883,5.55555334 Z M16.111132,10.0000116 C15.2222423,10.0000116 14.4444641,9.22223339 14.4444641,8.33334368 C14.4444641,7.44445398 15.2222423,6.66667573 16.111132,6.66667573 C17.0000217,6.66667573 17.7778,7.44445398 17.7778,8.33334368 C17.7778,9.22223339 17.0000217,10.0000116 16.111132,10.0000116 Z" transform="translate(-204.000000, -187.000000) translate(206.000000, 189.000000)"/></svg>